<?xml version="1.0" encoding="UTF-8"?>
<svg xmlns="http://www.w3.org/2000/svg" viewBox="0 0 1800 2400" width="1800" height="2400" role="img" aria-label="Hydra Constellation poster: top band — constellation overlay with Hydra highlighted and three crown stars; center — Pentecost flower sigil with Immortal Red head, three Crown Teal petals (Executive, Forge, Garland), five Trigram Amber stub petals (legal-compliance, healthcare, sales-gtm, research-ds, customer-support), outer ring of eight I Ching trigrams; outermost — AgentSmith warden ring with N1-N10 fail-closed; bottom band — memory lemniscate looping episodic and semantic stores.">
  <title>Hydra Constellation</title>
  <desc>Poster integrating three motifs into a single vertical composition. Theme follows Garland creative-direction: Void Black background, Vellum text, Immortal Red constitution, Crown Teal crowns, Trigram Amber stubs and trigrams.</desc>

  <defs>
    <radialGradient id="voidGrad" cx="50%" cy="50%" r="75%">
      <stop offset="0%" stop-color="#11142a"/>
      <stop offset="100%" stop-color="#0D0F1A"/>
    </radialGradient>
    <radialGradient id="immortalGrad" cx="50%" cy="50%" r="50%">
      <stop offset="0%" stop-color="#E54B3B"/>
      <stop offset="100%" stop-color="#9F2A1F"/>
    </radialGradient>
    <linearGradient id="petalTeal" x1="0%" y1="0%" x2="100%" y2="100%">
      <stop offset="0%" stop-color="#3FA0CB"/>
      <stop offset="100%" stop-color="#1F6F95"/>
    </linearGradient>
    <style><![CDATA[
      .vellum { fill: #E8D5A3; }
      .vellum-stroke { stroke: #E8D5A3; fill: none; }
      .amber { fill: #8B7355; }
      .amber-light { fill: #C2A57A; }
      .amber-stroke { stroke: #8B7355; fill: none; }
      .teal { fill: #2E86AB; }
      .teal-light { fill: #6FB8DA; }
      .teal-stroke { stroke: #2E86AB; fill: none; }
      .red { fill: #C0392B; }
      .void { fill: #0D0F1A; }
      .title-fell { font-family: 'IM Fell English', 'Georgia', 'Times New Roman', serif; font-weight: 400; }
      .body-mono { font-family: 'IBM Plex Mono', 'Consolas', 'Courier New', monospace; }
    ]]></style>
  </defs>

  <!-- Background -->
  <rect width="1800" height="2400" fill="url(#voidGrad)"/>

  <!-- ====================================================== -->
  <!-- TOP BAND: Constellation overlay (D10) -->
  <!-- ====================================================== -->
  <g id="constellation" transform="translate(0,60)">
    <text x="900" y="60" text-anchor="middle" class="vellum title-fell" font-size="56" letter-spacing="8">THE LARGEST CONSTELLATION</text>
    <text x="900" y="100" text-anchor="middle" class="amber-light body-mono" font-size="20" letter-spacing="3">Hydra · 1,303 square degrees · three crowns · one covenant</text>

    <!-- Background field of faint stylized constellation polygons -->
    <g class="vellum-stroke" stroke-width="0.6" opacity="0.15">
      <polygon points="140,220 280,180 360,260 290,340 160,310"/>
      <polygon points="430,200 540,170 620,250 550,310 440,280"/>
      <polygon points="680,180 800,160 870,240 790,310 680,270"/>
      <polygon points="1170,180 1280,160 1360,240 1280,310 1170,270"/>
      <polygon points="1410,210 1520,180 1610,270 1520,340 1400,310"/>
      <polygon points="160,420 270,390 350,470 280,540 170,510"/>
      <polygon points="1540,420 1650,390 1690,500 1620,560 1530,520"/>
    </g>

    <!-- Hydra constellation: long curving line across the top band -->
    <g id="hydra-line">
      <polyline class="teal-stroke" stroke-width="2.4" opacity="0.95"
                points="200,380 320,340 440,360 540,300 660,350 780,290 900,330 1040,300 1200,360 1340,320 1480,380 1620,350"/>

      <!-- Crown stars + labels -->
      <g>
        <circle cx="320" cy="340" r="14" class="teal-light"/>
        <circle cx="320" cy="340" r="22" class="teal-stroke" stroke-width="1.5" opacity="0.6"/>
        <text x="320" y="295" text-anchor="middle" class="vellum body-mono" font-size="20" font-weight="600">α Hya</text>
        <text x="320" y="318" text-anchor="middle" class="teal-light body-mono" font-size="14" letter-spacing="3">EXECUTIVE</text>
      </g>
      <g>
        <circle cx="900" cy="330" r="14" class="teal-light"/>
        <circle cx="900" cy="330" r="22" class="teal-stroke" stroke-width="1.5" opacity="0.6"/>
        <text x="900" y="285" text-anchor="middle" class="vellum body-mono" font-size="20" font-weight="600">σ Hya</text>
        <text x="900" y="308" text-anchor="middle" class="teal-light body-mono" font-size="14" letter-spacing="3">FORGE</text>
      </g>
      <g>
        <circle cx="1480" cy="380" r="14" class="teal-light"/>
        <circle cx="1480" cy="380" r="22" class="teal-stroke" stroke-width="1.5" opacity="0.6"/>
        <text x="1480" y="335" text-anchor="middle" class="vellum body-mono" font-size="20" font-weight="600">π Hya</text>
        <text x="1480" y="358" text-anchor="middle" class="teal-light body-mono" font-size="14" letter-spacing="3">GARLAND</text>
      </g>

      <!-- Minor stars -->
      <g class="vellum">
        <circle cx="200" cy="380" r="4"/>
        <circle cx="440" cy="360" r="4"/>
        <circle cx="540" cy="300" r="4"/>
        <circle cx="660" cy="350" r="4"/>
        <circle cx="780" cy="290" r="4"/>
        <circle cx="1040" cy="300" r="4"/>
        <circle cx="1200" cy="360" r="4"/>
        <circle cx="1340" cy="320" r="4"/>
        <circle cx="1620" cy="350" r="4"/>
      </g>
    </g>
  </g>

  <!-- ====================================================== -->
  <!-- CENTER: D1 Pentecost Flower sigil  (center at 900,1280) -->
  <!-- ====================================================== -->
  <g id="sigil" transform="translate(900, 1280)">

    <!-- Outer warden ring (AgentSmith) — radius 700 -->
    <polygon
      points="0,-700 495,-495 700,0 495,495 0,700 -495,495 -700,0 -495,-495"
      class="red" fill="none" stroke="#C0392B" stroke-width="1.6" stroke-dasharray="8 10" opacity="0.7"/>
    <text x="0" y="-735" text-anchor="middle" class="red body-mono" font-size="22" letter-spacing="6" font-weight="600">AGENTSMITH · N1–N10 · FAIL-CLOSED</text>

    <!-- Trigram outer ring — symbols at radius 540, labels at radius 600 -->
    <g id="trigram-ring">
      <polygon
        points="0,-540 382,-382 540,0 382,382 0,540 -382,382 -540,0 -382,-382"
        class="amber-stroke" stroke-width="1.6" opacity="0.85"/>
      <polygon
        points="0,-510 361,-361 510,0 361,361 0,510 -361,361 -510,0 -361,-361"
        class="amber-stroke" stroke-width="0.8" opacity="0.45"/>

      <!-- Each trigram cell: 3 stacked horizontal lines (broken/solid) + label below at radial outward. -->

      <!-- QIAN — top (heaven) — three solid -->
      <g transform="translate(0,-540)">
        <line x1="-26" y1="-14" x2="26" y2="-14" class="amber-stroke" stroke-width="3.6"/>
        <line x1="-26" y1="0"   x2="26" y2="0"   class="amber-stroke" stroke-width="3.6"/>
        <line x1="-26" y1="14"  x2="26" y2="14"  class="amber-stroke" stroke-width="3.6"/>
        <text x="0" y="-44" text-anchor="middle" class="amber-light body-mono" font-size="18" font-weight="600">QIAN</text>
        <text x="0" y="-26" text-anchor="middle" class="amber body-mono" font-size="12" opacity="0.85">vision</text>
      </g>

      <!-- KUN — top-right (earth) — three broken -->
      <g transform="rotate(45) translate(0,-540) rotate(-45)">
        <line x1="-26" y1="-14" x2="-8" y2="-14" class="amber-stroke" stroke-width="3.6"/>
        <line x1="8" y1="-14" x2="26" y2="-14" class="amber-stroke" stroke-width="3.6"/>
        <line x1="-26" y1="0" x2="-8" y2="0" class="amber-stroke" stroke-width="3.6"/>
        <line x1="8" y1="0" x2="26" y2="0" class="amber-stroke" stroke-width="3.6"/>
        <line x1="-26" y1="14" x2="-8" y2="14" class="amber-stroke" stroke-width="3.6"/>
        <line x1="8" y1="14" x2="26" y2="14" class="amber-stroke" stroke-width="3.6"/>
        <text x="0" y="-44" text-anchor="middle" class="amber-light body-mono" font-size="18" font-weight="600">KUN</text>
        <text x="0" y="-26" text-anchor="middle" class="amber body-mono" font-size="12" opacity="0.85">context</text>
      </g>

      <!-- ZHEN — right (thunder) — broken, broken, solid -->
      <g transform="rotate(90) translate(0,-540) rotate(-90)">
        <line x1="-26" y1="-14" x2="-8" y2="-14" class="amber-stroke" stroke-width="3.6"/>
        <line x1="8" y1="-14" x2="26" y2="-14" class="amber-stroke" stroke-width="3.6"/>
        <line x1="-26" y1="0" x2="-8" y2="0" class="amber-stroke" stroke-width="3.6"/>
        <line x1="8" y1="0" x2="26" y2="0" class="amber-stroke" stroke-width="3.6"/>
        <line x1="-26" y1="14" x2="26" y2="14" class="amber-stroke" stroke-width="3.6"/>
        <text x="0" y="-44" text-anchor="middle" class="amber-light body-mono" font-size="18" font-weight="600">ZHEN</text>
        <text x="0" y="-26" text-anchor="middle" class="amber body-mono" font-size="12" opacity="0.85">triggers</text>
      </g>

      <!-- XUN — bottom-right (wind) — solid solid broken -->
      <g transform="rotate(135) translate(0,-540) rotate(-135)">
        <line x1="-26" y1="-14" x2="26" y2="-14" class="amber-stroke" stroke-width="3.6"/>
        <line x1="-26" y1="0" x2="26" y2="0" class="amber-stroke" stroke-width="3.6"/>
        <line x1="-26" y1="14" x2="-8" y2="14" class="amber-stroke" stroke-width="3.6"/>
        <line x1="8" y1="14" x2="26" y2="14" class="amber-stroke" stroke-width="3.6"/>
        <text x="0" y="34" text-anchor="middle" class="amber-light body-mono" font-size="18" font-weight="600">XUN</text>
        <text x="0" y="52" text-anchor="middle" class="amber body-mono" font-size="12" opacity="0.85">influence</text>
      </g>

      <!-- KAN — bottom (water) — broken solid broken -->
      <g transform="translate(0,540)">
        <line x1="-26" y1="-14" x2="-8" y2="-14" class="amber-stroke" stroke-width="3.6"/>
        <line x1="8" y1="-14" x2="26" y2="-14" class="amber-stroke" stroke-width="3.6"/>
        <line x1="-26" y1="0" x2="26" y2="0" class="amber-stroke" stroke-width="3.6"/>
        <line x1="-26" y1="14" x2="-8" y2="14" class="amber-stroke" stroke-width="3.6"/>
        <line x1="8" y1="14" x2="26" y2="14" class="amber-stroke" stroke-width="3.6"/>
        <text x="0" y="44" text-anchor="middle" class="amber-light body-mono" font-size="18" font-weight="600">KAN</text>
        <text x="0" y="62" text-anchor="middle" class="amber body-mono" font-size="12" opacity="0.85">risk</text>
      </g>

      <!-- LI — bottom-left (fire) — solid broken solid -->
      <g transform="rotate(-135) translate(0,-540) rotate(135)">
        <line x1="-26" y1="-14" x2="26" y2="-14" class="amber-stroke" stroke-width="3.6"/>
        <line x1="-26" y1="0" x2="-8" y2="0" class="amber-stroke" stroke-width="3.6"/>
        <line x1="8" y1="0" x2="26" y2="0" class="amber-stroke" stroke-width="3.6"/>
        <line x1="-26" y1="14" x2="26" y2="14" class="amber-stroke" stroke-width="3.6"/>
        <text x="0" y="34" text-anchor="middle" class="amber-light body-mono" font-size="18" font-weight="600">LI</text>
        <text x="0" y="52" text-anchor="middle" class="amber body-mono" font-size="12" opacity="0.85">focus</text>
      </g>

      <!-- GEN — left (mountain) — solid broken broken -->
      <g transform="rotate(-90) translate(0,-540) rotate(90)">
        <line x1="-26" y1="-14" x2="26" y2="-14" class="amber-stroke" stroke-width="3.6"/>
        <line x1="-26" y1="0" x2="-8" y2="0" class="amber-stroke" stroke-width="3.6"/>
        <line x1="8" y1="0" x2="26" y2="0" class="amber-stroke" stroke-width="3.6"/>
        <line x1="-26" y1="14" x2="-8" y2="14" class="amber-stroke" stroke-width="3.6"/>
        <line x1="8" y1="14" x2="26" y2="14" class="amber-stroke" stroke-width="3.6"/>
        <text x="0" y="-44" text-anchor="middle" class="amber-light body-mono" font-size="18" font-weight="600">GEN</text>
        <text x="0" y="-26" text-anchor="middle" class="amber body-mono" font-size="12" opacity="0.85">constraints</text>
      </g>

      <!-- DUI — top-left (lake) — broken solid solid -->
      <g transform="rotate(-45) translate(0,-540) rotate(45)">
        <line x1="-26" y1="-14" x2="-8" y2="-14" class="amber-stroke" stroke-width="3.6"/>
        <line x1="8" y1="-14" x2="26" y2="-14" class="amber-stroke" stroke-width="3.6"/>
        <line x1="-26" y1="0" x2="26" y2="0" class="amber-stroke" stroke-width="3.6"/>
        <line x1="-26" y1="14" x2="26" y2="14" class="amber-stroke" stroke-width="3.6"/>
        <text x="0" y="-44" text-anchor="middle" class="amber-light body-mono" font-size="18" font-weight="600">DUI</text>
        <text x="0" y="-26" text-anchor="middle" class="amber body-mono" font-size="12" opacity="0.85">delight</text>
      </g>
    </g>

    <!-- ============== Petal ring (eight petals) ================ -->
    <!-- Slot angles 0,45,90,135,180,225,270,315 -->
    <!-- Crown petals: 0 (EXECUTIVE top), 135 (FORGE bottom-right), 225 (GARLAND bottom-left) -->
    <!-- Stub petals: 45, 90, 180, 270, 315 -->

    <g id="petals">
      <!-- 0 EXECUTIVE -->
      <g transform="rotate(0)">
        <ellipse cx="0" cy="-260" rx="78" ry="160" fill="url(#petalTeal)" opacity="0.93"/>
      </g>
      <!-- 45 stub -->
      <g transform="rotate(45)">
        <ellipse cx="0" cy="-240" rx="54" ry="124" class="amber" opacity="0.78"/>
      </g>
      <!-- 90 stub -->
      <g transform="rotate(90)">
        <ellipse cx="0" cy="-240" rx="54" ry="124" class="amber" opacity="0.78"/>
      </g>
      <!-- 135 FORGE -->
      <g transform="rotate(135)">
        <ellipse cx="0" cy="-260" rx="78" ry="160" fill="url(#petalTeal)" opacity="0.93"/>
      </g>
      <!-- 180 stub -->
      <g transform="rotate(180)">
        <ellipse cx="0" cy="-240" rx="54" ry="124" class="amber" opacity="0.78"/>
      </g>
      <!-- 225 GARLAND -->
      <g transform="rotate(225)">
        <ellipse cx="0" cy="-260" rx="78" ry="160" fill="url(#petalTeal)" opacity="0.93"/>
      </g>
      <!-- 270 stub -->
      <g transform="rotate(270)">
        <ellipse cx="0" cy="-240" rx="54" ry="124" class="amber" opacity="0.78"/>
      </g>
      <!-- 315 stub -->
      <g transform="rotate(315)">
        <ellipse cx="0" cy="-240" rx="54" ry="124" class="amber" opacity="0.78"/>
      </g>
    </g>

    <!-- ============== Petal labels (inside petals at radial 270) ================ -->
    <!-- Pattern: rotate(angle) translate(0,-r) rotate(-angle)  →  text drawn upright at the rotated position -->

    <g id="petal-labels" text-anchor="middle">
      <!-- EXECUTIVE — top -->
      <g transform="translate(0,-280)">
        <text x="0" y="0" class="vellum title-fell" font-size="26" letter-spacing="2">EXECUTIVE</text>
        <text x="0" y="22" class="teal-light body-mono" font-size="13" letter-spacing="1">20 execs · 4 orchestrators</text>
        <text x="0" y="40" class="amber body-mono" font-size="11" opacity="0.9">ExecutiveSuite</text>
      </g>

      <!-- FORGE — 135° (bottom-right) -->
      <g transform="rotate(135) translate(0,-280) rotate(-135)">
        <text x="0" y="0" class="vellum title-fell" font-size="26" letter-spacing="2">FORGE</text>
        <text x="0" y="22" class="teal-light body-mono" font-size="13" letter-spacing="1">best-of-N · 7 forge heads</text>
        <text x="0" y="40" class="amber body-mono" font-size="11" opacity="0.9">pair-programmer</text>
      </g>

      <!-- GARLAND — 225° (bottom-left) -->
      <g transform="rotate(225) translate(0,-280) rotate(-225)">
        <text x="0" y="0" class="vellum title-fell" font-size="26" letter-spacing="2">GARLAND</text>
        <text x="0" y="22" class="teal-light body-mono" font-size="13" letter-spacing="1">8 Muses + Helios·5</text>
        <text x="0" y="40" class="amber body-mono" font-size="11" opacity="0.9">RLM-Creative</text>
      </g>

      <!-- Stub petal labels at radius 250 (slightly inner so they sit center of amber petals) -->
      <g transform="rotate(45) translate(0,-250) rotate(-45)">
        <text x="0" y="0" class="amber-light body-mono" font-size="13" font-weight="600">legal-</text>
        <text x="0" y="16" class="amber-light body-mono" font-size="13" font-weight="600">compliance</text>
      </g>
      <g transform="rotate(90) translate(0,-250) rotate(-90)">
        <text x="0" y="0" class="amber-light body-mono" font-size="13" font-weight="600">healthcare</text>
        <text x="0" y="16" class="amber body-mono" font-size="10" opacity="0.8">stub</text>
      </g>
      <g transform="rotate(180) translate(0,-250) rotate(-180)">
        <text x="0" y="0" class="amber-light body-mono" font-size="13" font-weight="600">sales-gtm</text>
        <text x="0" y="16" class="amber body-mono" font-size="10" opacity="0.8">stub</text>
      </g>
      <g transform="rotate(270) translate(0,-250) rotate(-270)">
        <text x="0" y="0" class="amber-light body-mono" font-size="13" font-weight="600">research-ds</text>
        <text x="0" y="16" class="amber body-mono" font-size="10" opacity="0.8">stub</text>
      </g>
      <g transform="rotate(315) translate(0,-250) rotate(-315)">
        <text x="0" y="0" class="amber-light body-mono" font-size="13" font-weight="600">customer-</text>
        <text x="0" y="16" class="amber-light body-mono" font-size="13" font-weight="600">support</text>
      </g>
    </g>

    <!-- ============== Central immortal head ================ -->
    <circle cx="0" cy="0" r="118" fill="url(#immortalGrad)" stroke="#C0392B" stroke-width="4"/>
    <text x="0" y="-26" text-anchor="middle" class="title-fell" fill="#0D0F1A" font-size="22" font-weight="600">CONSTITUTION</text>
    <text x="0" y="0" text-anchor="middle" class="title-fell" fill="#0D0F1A" font-size="22" font-weight="600">.md</text>
    <text x="0" y="32" text-anchor="middle" class="body-mono" fill="#0D0F1A" font-size="11" letter-spacing="0.5">sha256 4060cb54…</text>
    <text x="0" y="48" text-anchor="middle" class="body-mono" fill="#0D0F1A" font-size="11" letter-spacing="0.5">dad6cfa5</text>
    <text x="0" y="70" text-anchor="middle" class="body-mono" fill="#0D0F1A" font-size="10" opacity="0.75" letter-spacing="1.5">THE IMMORTAL HEAD</text>
  </g>

  <!-- ====================================================== -->
  <!-- BOTTOM BAND: Memory lemniscate (D5) -->
  <!-- ====================================================== -->
  <g id="lemniscate" transform="translate(900,2200)">
    <text x="0" y="-100" text-anchor="middle" class="vellum title-fell" font-size="40" letter-spacing="5">THE MEMORY LEMNISCATE</text>
    <text x="0" y="-70" text-anchor="middle" class="amber-light body-mono" font-size="16" letter-spacing="3">episodic · semantic · eight cells · one continuity</text>

    <!-- Lemniscate path — figure-eight -->
    <path d="M -420,0 C -420,-130 -210,-130 0,0 C 210,130 420,130 420,0 C 420,-130 210,-130 0,0 C -210,130 -420,130 -420,0 Z"
          fill="none" class="teal-stroke" stroke-width="2.4" opacity="0.9"/>

    <!-- Episodic lobe (left) -->
    <text x="-310" y="-10" text-anchor="middle" class="vellum title-fell" font-size="22">EPISODIC</text>
    <text x="-310" y="16" text-anchor="middle" class="amber-light body-mono" font-size="12" opacity="0.85">~/.hydra/episodic.db</text>
    <text x="-310" y="32" text-anchor="middle" class="amber body-mono" font-size="11" opacity="0.75">append-only · ep://wf/{id}</text>

    <!-- Semantic lobe (right) -->
    <text x="310" y="-10" text-anchor="middle" class="vellum title-fell" font-size="22">SEMANTIC</text>
    <text x="310" y="16" text-anchor="middle" class="amber-light body-mono" font-size="12" opacity="0.85">~/.hydra/vectors/</text>
    <text x="310" y="32" text-anchor="middle" class="amber body-mono" font-size="11" opacity="0.75">per-squad · read-scoped</text>

    <!-- Crossing point -->
    <circle cx="0" cy="0" r="9" class="red"/>
    <text x="0" y="-20" text-anchor="middle" class="red body-mono" font-size="11" font-weight="600">MemoryRef</text>
  </g>

  <!-- Footer -->
  <text x="900" y="2370" text-anchor="middle" class="amber body-mono" font-size="12" letter-spacing="3" opacity="0.85">
    HYDRA · 2026-05-20 · sha256 4060cb542fcc701143e56ec7b1608584b7c399d878db193dbf81c0f9dad6cfa5 · Pentecost, not Legion
  </text>
</svg>
